<mxfile host="app.diagrams.net" modified="2023-08-18T10:18:04.128Z" agent="Mozilla/5.0 (Macintosh; Intel Mac OS X 10_15_7) AppleWebKit/537.36 (KHTML, like Gecko) Chrome/115.0.0.0 Safari/537.36" version="21.6.6" etag="7BX64YGZhcVNT4uJ9Wz-" type="github">
  <diagram name="Page-1" id="yhZFjcrkP78LpIHWxFgW">
    <mxGraphModel>
      <root>
        <mxCell id="0" />
        <mxCell id="1" parent="0" />
      </root>
    </mxGraphModel>
  </diagram>
</mxfile>
